<svg width="64" height="64" viewBox="0 0 64 64" xmlns="http://www.w3.org/2000/svg">
  <defs>
    <linearGradient id="b" x1="32" y1="10" x2="32" y2="61" gradientUnits="userSpaceOnUse">
      <stop offset="0" stop-color="#8ED8F4"/><stop offset="1" stop-color="#35A0E2"/>
    </linearGradient>
    <radialGradient id="e" cx="0.5" cy="0.5" r="0.5">
      <stop offset="0" stop-color="#C4FFF6"/><stop offset="0.45" stop-color="#48E6D4"/><stop offset="1" stop-color="#1FC4B4"/>
    </radialGradient>
  </defs>
  <rect width="64" height="64" rx="15" fill="#0A0F16"/>
  <g transform="translate(6.4 6) scale(0.8)">
    <g fill="url(#b)">
      <rect x="6" y="39" width="8" height="16" rx="4" transform="rotate(15 10 47)"/>
      <rect x="50" y="39" width="8" height="16" rx="4" transform="rotate(-15 54 47)"/>
    </g>
    <rect x="27.5" y="55" width="9" height="7" rx="2.4" fill="#2F92D6"/>
    <rect x="30.7" y="7.5" width="2.6" height="12" rx="1.3" fill="url(#b)"/>
    <circle cx="32" cy="6" r="3.7" fill="url(#b)"/>
    <path d="M32 15 C41 15 48.6 19 50 27 C51.4 34 51.6 44 49 51 C46.7 57 40 60 32 60 C24 60 17.3 57 15 51 C12.4 44 12.6 34 14 27 C15.4 19 23 15 32 15 Z" fill="url(#b)"/>
    <rect x="18.4" y="24.8" width="27.2" height="14.6" rx="7.3" fill="#0A0F14"/>
    <circle cx="27" cy="32.1" r="2.75" fill="url(#e)"/>
    <circle cx="37" cy="32.1" r="2.75" fill="url(#e)"/>
  </g>
</svg>
